<?xml version="1.0" encoding="UTF-8" standalone="no"?>
<!-- Created with Inkscape (http://www.inkscape.org/) -->

<svg
   width="1050"
   height="1050"
   id="svg3204"
   version="1.1"
   inkscape:version="1.1.2 (b8e25be833, 2022-02-05)"
   sodipodi:docname="RESCUE2.svg"
   xmlns:inkscape="http://www.inkscape.org/namespaces/inkscape"
   xmlns:sodipodi="http://sodipodi.sourceforge.net/DTD/sodipodi-0.dtd"
   xmlns="http://www.w3.org/2000/svg"
   xmlns:svg="http://www.w3.org/2000/svg"
   xmlns:rdf="http://www.w3.org/1999/02/22-rdf-syntax-ns#"
   xmlns:cc="http://creativecommons.org/ns#"
   xmlns:dc="http://purl.org/dc/elements/1.1/">
  <defs
     id="defs3206" />
  <sodipodi:namedview
     id="base"
     pagecolor="#ffffff"
     bordercolor="#666666"
     borderopacity="1.0"
     inkscape:pageopacity="0.0"
     inkscape:pageshadow="2"
     inkscape:zoom="0.45254834"
     inkscape:cx="644.13008"
     inkscape:cy="470.66795"
     inkscape:document-units="px"
     inkscape:current-layer="layer1"
     showgrid="false"
     inkscape:window-width="1920"
     inkscape:window-height="1017"
     inkscape:window-x="-8"
     inkscape:window-y="-1088"
     inkscape:window-maximized="1"
     inkscape:pagecheckerboard="0"
     units="px"
     width="1050px" />
  <metadata
     id="metadata3209">
    <rdf:RDF>
      <cc:Work
         rdf:about="">
        <dc:format>image/svg+xml</dc:format>
        <dc:type
           rdf:resource="http://purl.org/dc/dcmitype/StillImage" />
      </cc:Work>
    </rdf:RDF>
  </metadata>
  <g
     inkscape:label="Calque 1"
     inkscape:groupmode="layer"
     id="layer1">
    <g
       id="g878"
       transform="matrix(1.128988,0,0,1.128988,636.02651,-210.62796)">
      <path
         inkscape:connector-curvature="0"
         id="path3911-4"
         d="M 201.22217,325.39483 C 31.125427,169.18168 -228.13204,171.09342 -395.80094,323.43772 l 74.94323,68.82621 C -191.37978,280.88027 3.8737478,281.56317 132.766,399.93502 261.65826,518.30687 278.92247,712.79565 178.93922,851.26657 l 74.94322,68.82622 C 391.43434,740.08978 371.31887,481.60792 201.22217,325.39483 Z m -12.19956,18.88226 -29.45401,49.8305 -11.54161,-9.40125 17.53269,-28.22702 -31.54471,16.81204 -4.58319,-3.7334 10.57637,-33.89492 -24.58839,22.48003 -11.4751,-9.3503 43.69231,-38.22988 11.37883,9.26991 -10.27528,31.00148 28.80598,-15.90624 z m 18.79167,19.71736 10.05138,10.97988 -42.21944,38.64738 -10.05024,-10.97888 z m 23.96369,26.10274 8.48691,12.22933 -13.15068,42.4575 28.76312,-19.96378 8.48793,12.22818 -47.0199,32.63551 -8.48791,-12.22814 13.18556,-42.4822 -28.79802,19.98843 -8.48691,-12.22927 z M 86.820979,276.22022 c 0.05444,0.0494 0.108585,0.0998 0.162496,0.14928 2.358817,2.17462 3.899715,4.71907 4.622407,7.63169 1.018773,4.06989 0.605233,8.11015 -1.242146,12.12198 -2.116361,4.59588 -5.177785,7.6333 -9.182745,9.11275 -2.55886,0.94526 -5.532404,1.05284 -8.920443,0.32366 l 6.518354,28.85401 -16.834994,-7.75262 -3.683355,-25.88605 -9.189807,19.95819 -13.522192,-6.22638 23.940595,-51.98894 21.024873,9.68149 c 2.511295,1.15646 4.613343,2.49574 6.306957,4.02094 z m 188.670781,181.30542 9.06925,20.01277 c 2.2154,4.88867 2.9073,10.03778 2.0754,15.44814 -0.79034,5.29939 -2.90431,10.04823 -6.34227,14.24569 -2.85882,3.44391 -6.23613,6.04866 -10.13169,7.81417 -5.42338,2.45776 -11.18677,3.09701 -17.29081,1.91956 -6.10405,-1.17755 -11.20088,-3.90825 -15.29095,-8.19283 -2.16526,-2.27208 -3.88187,-4.80842 -5.15121,-7.60921 l -9.07135,-20.01277 z M 74.39251,282.45752 c -0.905178,-0.82483 -2.105722,-1.58307 -3.603014,-2.27251 l -2.514157,-1.15713 -5.980055,12.98723 2.513154,1.15828 c 2.843777,1.30955 5.162614,1.65291 6.956368,1.03246 1.942081,-0.67532 3.339805,-1.93884 4.19341,-3.79242 0.853463,-1.85358 0.899883,-3.72591 0.138833,-5.61522 -0.337587,-0.83338 -0.905942,-1.61275 -1.704539,-2.34069 z M 38.829534,254.6251 30.062952,286.43925 c -0.91348,3.31485 -1.962261,6.07108 -3.147252,8.26721 -1.838028,3.40807 -4.746307,6.17294 -8.723644,8.29555 -5.639654,2.99845 -12.2054776,3.4659 -19.6975675,1.40154 -7.6269148,-2.10167 -12.9886175,-5.89943 -16.0855365,-11.39214 -1.639989,-2.88757 -2.405333,-6.15748 -2.29775,-9.81035 0.07543,-2.58886 0.677465,-5.93081 1.806159,-10.02718 l 8.7655321,-31.81516 14.3508934,3.95516 -8.2308601,29.87307 c -0.6609096,2.3986 -1.1150971,4.20171 -1.3610358,5.40974 -0.7626724,3.82028 0.2289067,6.90599 2.9738307,9.25717 1.12268282,0.97621 2.46573241,1.6803 4.0287671,2.11097 3.5034936,0.96534 6.4816658,0.46697 8.9359956,-1.49553 1.818181,-1.44161 3.441568,-4.74983 4.867344,-9.92423 L 24.477591,250.671 Z m 231.463316,221.59889 -29.44568,13.34518 1.40202,3.09325 c 2.41163,5.32143 5.98668,8.50466 10.72593,9.54881 3.61047,0.78834 7.21092,0.36869 10.80106,-1.25832 3.59003,-1.62701 6.26547,-4.05209 8.02742,-7.27511 2.32758,-4.27737 2.29138,-9.06456 -0.10873,-14.36057 z m 43.38995,89.2052 3.06273,15.93587 -52.13941,31.9702 -3.00023,-15.6072 9.10401,-5.50707 -3.87836,-20.1767 -10.54459,-1.98778 -2.96785,-15.44185 z M -42.190119,240.44124 c 1.388134,1.26313 2.664487,2.6766 3.82715,4.2415 4.658761,6.28505 6.65981,13.31403 6.003146,21.08555 -0.654469,7.7437 -3.806062,14.32216 -9.453588,19.73625 -6.440016,6.16068 -14.673548,8.81719 -24.701359,7.96979 -9.999901,-0.84511 -17.657254,-4.84411 -22.972059,-11.99813 -4.658856,-6.28505 -6.662005,-13.29943 -6.007679,-21.04318 0.298943,-3.53756 1.302593,-7.10627 3.009708,-10.70728 1.706924,-3.60091 3.84151,-6.62627 6.404998,-9.07477 6.440016,-6.16064 14.674454,-8.8182 24.70236,-7.9709 7.834162,0.66211 14.229618,3.24988 19.187323,7.76117 z m -10.802602,10.77087 c -0.05386,-0.0494 -0.108203,-0.0987 -0.1624,-0.14723 -2.59593,-2.33391 -5.743087,-3.65735 -9.440803,-3.96989 -3.398152,-0.28702 -6.556473,0.40814 -9.475486,2.08301 -2.918918,1.67505 -5.097157,4.05061 -6.535386,7.12721 -0.821545,1.75411 -1.311132,3.56389 -1.468858,5.43016 -0.324801,3.84404 0.665586,7.39314 2.971684,10.64587 2.85766,4.02877 6.793825,6.25443 11.80773,6.67813 5.014049,0.42389 9.27969,-1.09549 12.798498,-4.55742 2.814436,-2.76387 4.388157,-6.10959 4.720115,-10.03716 0.338923,-4.01112 -0.649126,-7.58712 -2.964623,-10.72851 -0.696453,-0.93991 -1.446387,-1.78163 -2.250471,-2.52422 z m 350.809651,325.42281 -19.09088,-2.69306 2.34195,12.18901 z m 23.47795,35.99039 1.92048,39.28486 -12.44002,0.60738 -0.60089,-12.31263 -44.72998,2.18483 -0.72546,-14.86824 44.7289,-2.18588 -0.59096,-12.10304 z m -427.76904,-380.57685 -18.67307,31.53181 2.46669,27.39617 -14.8254,1.33561 -2.46779,-27.39713 -23.29834,-27.75075 17.70883,-1.59442 12.17385,14.56471 8.95732,-16.46939 z m 427.69052,462.43142 -3.42507,22.89218 c -1.00128,6.69039 -3.74668,11.33923 -8.23528,13.94637 -3.62355,2.11464 -7.61939,2.84454 -11.98752,2.19093 -5.00403,-0.74894 -8.77563,-2.8392 -11.31458,-6.27175 -1.62216,-2.19317 -2.5554,-5.01839 -2.80122,-8.47527 l -25.88539,14.3154 2.74232,-18.32904 23.82794,-10.76581 -21.72941,-3.25188 2.20257,-14.72163 z m -13.3996,13.04758 -14.14084,-2.11651 -0.41008,2.73667 c -0.46337,3.09635 -0.14599,5.41891 0.95069,6.96806 1.19065,1.67624 2.79509,2.66501 4.81332,2.96705 2.01816,0.30195 3.82743,-0.17662 5.42909,-1.43493 1.50619,-1.1879 2.4884,-3.31495 2.94772,-6.38367 z m -506.01327,-462.77841 3.54992,11.93606 -11.81623,3.51418 12.76749,42.9248 -14.26798,4.24432 -12.76743,-42.9249 -11.61513,3.45402 -3.54997,-11.93606 z m 508.48546,510.91386 -9.0887,31.28759 -11.95944,-3.47343 4.93591,-16.99257 -9.30134,-2.70227 -4.66829,16.0664 -11.95843,-3.47449 4.66829,-16.06645 -9.78636,-2.84201 -4.93595,16.99267 -11.95843,-3.47453 9.0887,-31.28755 z m -560.82646,-494.59398 13.83344,29.961 c 1.44138,3.12168 2.41874,5.90286 2.9308,8.34521 0.79525,3.78955 0.35858,7.77839 -1.30999,11.96655 -2.37313,5.92996 -7.08747,10.52412 -14.14284,13.78196 -7.18246,3.31647 -13.72791,3.87605 -19.63831,1.67863 -3.11624,-1.14749 -5.81212,-3.15026 -8.08721,-6.01016 -1.61303,-2.02633 -3.31094,-4.96853 -5.09219,-8.82621 l -13.8335,-29.961 13.51409,-6.24021 12.98966,28.13342 c 1.04301,2.25882 1.8615,3.92853 2.45328,5.01009 1.88273,3.4106 4.63105,5.12826 8.24499,5.15297 1.48775,0.0213 2.96729,-0.30791 4.4393,-0.98766 3.2993,-1.52339 5.2533,-3.82672 5.86193,-6.90966 0.45838,-2.27466 -0.43788,-5.84843 -2.68787,-10.72126 l -12.98967,-28.13342 z m 535.36524,538.61986 c 0.053,0.0474 0.10475,0.0962 0.15703,0.14422 1.77934,1.63608 3.16989,3.56079 4.17093,5.77376 2.29275,5.0244 2.20994,10.35542 -0.24705,15.99326 -2.46823,5.66337 -6.3081,10.59259 -11.52026,14.78571 l -8.2299,-10.08239 c 3.60191,-1.9676 6.06104,-4.4642 7.37891,-7.48808 0.6366,-1.46079 0.83506,-2.92836 0.59448,-4.40538 -0.27612,-1.67557 -1.11935,-2.82144 -2.52876,-3.43569 -1.38389,-0.60309 -2.94999,-0.26379 -4.69765,1.01762 -0.79638,0.56779 -2.59536,2.52761 -5.39824,5.88016 -3.50908,4.20352 -7.00454,6.76677 -10.48628,7.68888 -2.9745,0.80771 -6.19145,0.45791 -9.65105,-1.04973 -8.86672,-3.86427 -12.94745,-10.27847 -12.24307,-19.24152 0.23568,-3.12964 1.03447,-6.2569 2.39698,-9.38331 2.85909,-6.56038 7.49715,-11.7821 13.91512,-15.66316 l 8.44751,10.63447 c -5.47711,2.49192 -9.07001,5.69771 -10.7788,9.61861 -0.77064,1.76818 -1.01414,3.44619 -0.73018,5.03365 0.29708,1.83717 1.29234,3.1245 2.98371,3.86165 1.53755,0.67007 3.16528,0.43415 4.8828,-0.70791 1.28251,-0.84382 2.9285,-2.4893 4.94028,-4.93632 2.47366,-2.94717 4.09306,-4.7725 4.85722,-5.47625 1.19247,-1.12698 2.39817,-2.00391 3.61702,-2.63148 3.52372,-1.78812 7.61693,-1.6667 12.28093,0.36598 2.28475,0.99573 4.24816,2.22976 5.88828,3.70325 z M -304.51488,302.29425 c 1.30526,1.17969 2.50795,2.58705 3.60793,4.22227 2.88647,4.29112 4.26468,8.51969 4.13463,12.68356 -0.17147,5.40474 -3.29486,10.15061 -9.37196,14.23844 l -7.72448,5.19515 10.57832,15.72685 -12.3508,8.30848 -31.9466,-47.49234 19.65773,-13.2231 c 5.58999,-3.76016 10.93571,-4.97998 16.03497,-3.65998 2.74564,0.70108 5.20488,2.0344 7.38026,4.00067 z m 578.45199,548.08332 -20.12265,33.79354 -10.69936,-6.37069 6.30662,-10.59221 -38.47898,-22.91155 7.61556,-12.78886 38.47795,22.91056 6.20038,-10.41249 z M -315.10251,313.60461 c -0.87149,-0.77326 -1.85239,-1.27316 -2.9412,-1.49882 -1.74208,-0.36096 -3.85329,0.2937 -6.33515,1.96312 l -4.14026,2.78452 7.93354,11.79599 4.10534,-2.762 c 2.6674,-1.79418 4.11073,-3.60712 4.32809,-5.43785 0.20248,-1.65224 -0.29804,-3.37219 -1.49944,-5.15827 -0.44465,-0.6611 -0.92803,-1.22277 -1.45092,-1.68669 z m -147.45807,85.93138 c -124.21017,179.00824 -100.32029,426.72304 64.65564,578.23334 164.97592,151.51027 413.823721,154.27187 581.63464,15.30563 l -75.46153,-69.3022 C -20.876322,1022.037 -205.73087,1016.847 -329.44777,903.22803 -453.16468,789.60917 -474.03865,605.86254 -387.09905,468.83824 Z M 126.0207,966.06132 c 1.87519,1.72214 3.47973,3.66408 4.81462,5.82442 3.12984,5.06534 4.50042,10.70084 4.11169,16.90527 -0.38887,6.20442 -2.44665,11.60819 -6.17418,16.21169 -1.9771,2.4375 -4.27433,4.4645 -6.89015,6.0808 l -18.69072,11.5486 -30.086633,-48.69106 18.691724,-11.54967 c 4.565872,-2.82121 9.584599,-4.16445 15.056889,-4.02986 5.35707,0.10739 10.33668,1.59833 14.93852,4.47255 1.53594,0.9733 2.94525,2.04885 4.22824,3.22726 z m -538.18465,-493.11144 -7.1192,13.07267 -50.26639,-27.37461 7.11915,-13.07267 z m 526.73035,503.2473 c -1.49749,-1.38985 -3.20828,-2.46038 -5.13294,-3.21194 -4.53949,-1.7626 -9.28341,-1.11514 -14.229812,1.94122 l -2.88805,1.78483 16.992532,27.50191 2.89015,-1.7848 c 4.9702,-3.0711 7.6697,-7.02391 8.10047,-11.85772 0.32093,-3.68139 -0.5539,-7.19772 -2.62575,-10.55083 -0.90647,-1.46695 -1.94165,-2.74187 -3.1066,-3.82267 z m -549.4016,-487.26745 -3.73436,7.83526 -10.85384,-12.60551 2.67078,-5.60163 z m 5.50878,17.60124 -5.45268,13.85018 -41.6696,-16.4068 -6.54393,16.62106 -11.58903,-4.56229 11.9988,-30.47129 z m 500.850011,467.83191 5.238518,11.29857 -16.054478,7.44152 4.073375,8.78733 15.17907,-7.03499 5.237421,11.29759 -15.179022,7.037 4.284867,9.2447 16.054479,-7.4415 5.237421,11.2976 -29.559257,13.7024 -24.070553,-51.92889 z m -513.095511,-435.99214 -4.11961,14.30518 -43.03417,-12.39497 -4.94448,17.16499 -11.96565,-3.44677 9.06304,-31.46902 z m 480.831215,450.91863 4.10157,11.75853 -16.707706,5.8274 3.18957,9.1456 15.797995,-5.5091 4.100617,11.7596 -15.797996,5.5092 3.356407,9.6207 16.707755,-5.8274 4.100616,11.7596 -30.763092,10.7285 -18.8488759,-54.0442 z m -33.7734202,12.46773 11.7156992,56.0254 -14.5710691,3.0469 -33.9773749,-28.7083 7.175781,34.3119 -14.570068,3.048 -11.715652,-56.0254 14.570116,-3.0458 33.9692163,28.6664 -7.1666206,-34.2711 z M -454.84297,589.97858 l -2.56225,21.99025 c -1.242,10.66229 -6.80566,15.41942 -16.69053,14.26807 -2.97102,-0.34613 -5.38742,-1.21948 -7.25073,-2.6185 -1.5806,-1.16915 -2.85003,-2.83714 -3.80788,-5.00312 -1.47449,4.44369 -3.65626,7.34219 -6.54359,8.69454 -2.64588,1.21152 -5.60693,1.62577 -8.88337,1.24425 -4.24833,-0.49489 -7.5649,-2.10534 -9.94905,-4.83152 -3.45211,-3.94813 -4.75976,-9.50353 -3.92538,-16.66729 l 2.75971,-23.69961 z m -12.96882,13.47558 -11.11968,-1.29534 -0.3164,2.70733 c -0.29761,2.55456 0.11388,4.45991 1.23399,5.71617 0.89611,1.00489 2.08019,1.59257 3.55191,1.76399 2.58224,0.30075 4.42547,-0.6653 5.53021,-2.90065 0.37457,-0.80055 0.64412,-1.89604 0.80571,-3.28422 z m -22.36559,-2.60538 -11.99565,-1.39739 -0.38329,3.29157 c -0.43993,3.77625 -0.30195,6.46545 0.41182,8.06832 0.80232,1.81016 2.23048,2.83581 4.2851,3.07502 3.30436,0.38491 5.44691,-1.0973 6.4279,-4.44465 0.29265,-1.06347 0.59293,-2.91376 0.90022,-5.55158 z m 30.59473,34.69252 -0.18077,32.57997 -12.45289,-0.0684 0.0976,-17.69532 -9.68564,-0.0532 -0.0933,16.7296 -12.45299,-0.0685 0.0923,-16.7306 -10.18907,-0.0561 -0.0987,17.69422 -12.45299,-0.0685 0.18082,-32.57992 z m 387.103569,379.8084 -0.02572,32.9997 c -0.0029,3.4383 -0.286348,6.373 -0.847307,8.8046 -0.869683,3.7731 -2.941198,7.2105 -6.214163,10.3107 -4.644115,4.3852 -10.85074,6.5735 -18.622021,6.5673 -7.911068,-0.01 -14.087918,-2.2472 -18.529028,-6.7235 -2.34632,-2.35 -3.95091,-5.2998 -4.81468,-8.8507 -0.61301,-2.5163 -0.91744,-5.8998 -0.914,-10.1488 l 0.0258,-32.9997 14.88585,0.011 -0.0248,30.9885 c -0.002,2.488 0.0383,4.3467 0.12118,5.5767 0.27638,3.886 2.04986,6.5981 5.31929,8.1381 1.34148,0.644 2.823067,0.9672 4.44445,0.9685 3.634072,0 6.374273,-1.2674 8.221318,-3.8098 1.371246,-1.8718 2.058777,-5.4907 2.063071,-10.8579 l 0.02486,-30.9864 z M -455.80402,706.222 l 2.73075,15.99532 -52.79371,30.87743 -2.67346,-15.66536 9.21662,-5.31666 -3.4575,-20.2537 -10.50218,-2.20586 -2.64526,-15.49991 z m 320.09259,310.7713 c 1.87906,1.7032 3.53212,3.6688 4.95809,5.8974 4.20925,6.5946 5.71518,13.7459 4.51831,21.4527 -1.19282,7.6793 -4.79469,14.0216 -10.8058,19.0287 -6.85399,5.6967 -15.25321,7.7733 -25.19748,6.2288 -9.9168,-1.5402 -17.27669,-6.0643 -22.07986,-13.5714 -4.2092,-6.5947 -5.71766,-13.7308 -4.52494,-21.4101 0.54483,-3.5081 1.79371,-6.9996 3.74772,-10.4728 1.95381,-3.4731 4.29522,-6.3422 7.0232,-8.6063 6.85375,-5.6965 15.25326,-7.771 25.19758,-6.2266 6.99215,1.086 12.71281,3.6457 17.16318,7.6796 z m -336.18791,-299.89981 -19.03079,-3.08914 2.08865,12.23562 z m 21.73488,23.12066 4.68882,14.12771 -24.60504,37.01684 33.22992,-11.02965 3.95315,11.91359 6.92025,13.77424 -9.0796,16.67086 18.60728,2.28735 4.5882,9.13255 0.0492,-0.0316 21.47572,32.95115 -0.21664,0.14117 8.59621,10.23453 -16.91853,14.21449 13.80992,16.43776 16.91958,-14.21563 9.57425,11.398 -43.82199,36.81722 -9.57529,-11.39681 18.23586,-15.32052 -13.81001,-16.43771 -18.23582,15.32047 -9.5753,-11.39686 34.55952,-29.03483 -6.70661,-10.28863 -37.51689,24.45245 -8.12786,-12.47035 37.51689,-24.45245 -6.61639,-10.15318 2.48157,-1.61762 -24.77464,-3.9696 -24.57927,12.35093 -6.68391,-13.3021 24.57832,-12.34984 14.01121,-25.85395 -49.27219,16.35289 -4.68891,-14.1277 24.64568,-37.0302 -33.27167,11.04205 -4.68881,-14.12771 z m 303.43126,287.25955 c -2.28974,-2.0668 -5.07717,-3.3557 -8.36216,-3.8659 -3.37005,-0.5234 -6.56926,-0.051 -9.59781,1.416 -3.0286,1.4675 -5.36733,3.6862 -7.01653,6.6549 -0.94186,1.6926 -1.55669,3.4635 -1.84418,5.3143 -0.59197,3.8118 0.14899,7.421 2.22275,10.8265 2.56974,4.2183 6.34021,6.7142 11.31247,7.4863 4.97216,0.7723 9.33427,-0.4454 13.08599,-3.6537 3.00031,-2.5609 4.80332,-5.7896 5.40831,-9.6844 0.61773,-3.9777 -0.1187,-7.6143 -2.20944,-10.9094 -0.88089,-1.3807 -1.88111,-2.5752 -2.9994,-3.5846 z m -30.65355,-19.9291 -29.25936,22.0647 -8.13273,26.277 -14.22007,-4.4018 8.13272,-26.277 -10.99616,-34.52508 16.98309,5.25712 5.72309,18.09966 14.54474,-11.8258 z m -84.43756,-32.58947 c 2.58701,2.37199 4.59249,5.08776 6.01817,8.14637 1.76904,3.76498 2.54717,8.32651 2.33387,13.68549 l -15.19687,-1.64104 c 0.22805,-2.93165 -0.0369,-5.36756 -0.7942,-7.30812 -1.10379,-2.76577 -3.04192,-4.90489 -5.81585,-6.41601 -5.6708,-3.08886 -11.22148,-2.30729 -16.65126,2.34293 -2.01145,1.70563 -3.64572,3.71188 -4.90265,6.01946 -2.60757,4.78695 -3.27111,9.599 -1.99003,14.43509 0.93686,3.5981 3.27129,6.4127 7.00274,8.4453 3.31399,1.8052 6.46893,2.2656 9.4647,1.3827 1.97186,-0.5812 3.83598,-2.0167 5.59281,-4.3068 l -10.71463,-5.8361 5.41423,-9.94224 25.92404,14.12004 c -2.96868,5.4498 -6.00353,9.5594 -9.10298,12.3277 -4.71396,4.2125 -9.98659,6.5603 -15.82032,7.0432 -5.61966,0.4405 -11.26509,-0.8839 -16.9358,-3.9728 -9.23017,-5.028 -14.60113,-12.0274 -16.1123,-20.9995 -1.13719,-6.79497 0.0924,-13.49519 3.68951,-20.0988 3.98487,-7.31547 9.52019,-12.27427 16.60441,-14.87749 8.04771,-2.96949 16.51502,-2.03416 25.40149,2.80656 2.50628,1.36518 4.70313,2.91319 6.59092,4.64406 z m -33.80162,-17.40944 -34.96628,45.31451 -11.78502,-9.09436 -0.26221,-44.4804 -21.41584,27.75385 -11.78493,-9.09438 34.96628,-45.31454 11.78502,9.09439 0.28926,44.44657 21.3888,-27.72003 z m -58.80034,-49.26635 10.7099,10.33777 -39.75013,41.18234 -10.70986,-10.33773 z"
         style="opacity:0.91;fill:#00ff00;stroke:none;stroke-width:0.0477088" />
      <path
         sodipodi:nodetypes="sccsccccccccccccccccccccccccccsccccccccccccccccccsccccccccccccccccccccccccccccccccsccccccccccccscccccccsccccscccccccccccccccccsccccccccc"
         inkscape:connector-curvature="0"
         id="path2996-17-4-5-2-3"
         d="m -95.049353,381.40952 c -0.145224,-4.5e-4 -0.29031,4.6e-4 -0.435533,9.7e-4 -1.720856,0.0115 -3.436861,0.13049 -5.130494,0.36377 -2.82467,0.35181 -5.50041,0.8738 -7.99763,1.6935 -5.11346,1.67859 -9.4795,4.60756 -12.85184,9.89274 -4.51332,6.98247 -5.46642,14.1385 -3.7322,22.01171 v 3.09128 l 2.73947,6.08298 1.68211,7.14557 1.05586,7.72516 -0.52868,5.55159 c 0.12407,0.29686 0.24569,0.58868 0.36946,0.88458 -6.78455,18.28581 -21.4117,12.00159 -32.87222,20.33932 -2.01967,1.52239 -5.04978,4.06015 -7.06941,7.1048 -2.83368,4.23396 -8.08263,5.00439 -12.59051,6.61577 0,0 -6.09168,3.05118 -8.61639,4.57353 -9.60767,7.36691 -18.20728,11.31715 -27.7447,18.24882 -2.01963,1.52236 -5.56168,4.0531 -8.08625,6.08293 -14.87052,15.1888 -14.95475,16.12528 -9.10007,35.03349 6.12656,15.90898 11.80094,26.05499 20.72027,39.07418 l 7.06945,9.14703 c 3.55674,7.62284 8.52686,12.16819 11.61874,19.27069 l 2.51871,9.63458 c -0.83862,5.30163 -0.0318,8.61657 1.50193,13.45342 8.95544,7.56232 5.67615,11.12387 8.57133,20.0254 -6.84819,42.04977 -7.76437,52.82735 3.04891,94.39867 -3.64321,9.36192 -12.19299,-0.84267 -17.18632,-2.79695 -26.3114,-22.95059 -22.35277,-10.08498 -59.55651,-16.73938 -11.43466,-3.47901 -23.53547,-7.61401 -33.84248,-11.67833 -4.93782,-2.65919 -1.23334,-9.82303 -0.26583,-14.20813 0.65932,-5.05074 -0.58419,-9.03069 -5.19633,-9.95558 -18.92112,-3.79441 -13.97923,6.82691 -36.8374,19.87094 -14.65662,10.37909 -23.13598,9.99756 -36.96194,17.74769 -3.67725,3.68198 -8.2548,7.74764 -6.05266,12.16585 5.69404,2.72599 10.44949,-0.18021 16.12591,-1.99847 8.09174,-4.61629 17.4009,-4.97551 26.77298,-5.10634 41.05752,-0.0659 55.4974,12.90622 77.75962,23.35516 22.62236,14.27963 49.84715,25.33288 70.20358,37.56471 26.02467,4.94889 30.28972,4.31235 41.39847,-17.27219 7.65474,-20.77019 17.95,-42.64525 20.67671,-62.91836 -0.96001,-9.23914 -3.35473,-11.993 5.19514,-10.91305 l 19.545762,18.01784 c 8.026174,4.67503 16.390102,8.66376 24.742364,12.69871 8.32449,4.05048 7.583321,10.2238 9.100066,18.78165 1.029604,10.69836 4.955894,20.41727 8.571333,30.41614 6.027407,11.06929 16.504304,19.15633 22.223742,28.41776 9.68439,12.60489 15.7342632,23.64369 22.7087795,38.09604 4.2339412,6.47276 8.1818278,13.12196 12.1504415,19.75976 1.634425,5.70728 3.17954,8.87945 3.17954,14.74245 -2.361138,15.17495 1.466554,26.20722 14.491858,19.26911 9.343661,-4.97704 16.803811,-9.8667 26.267896,-9.8667 14.705026,-1.41006 28.005221,-1.98177 39.871533,-12.9556 10.005175,-9.53935 8.785915,-13.54095 1.016742,-13.18771 -13.332268,6.21355 -22.187503,4.30269 -35.876013,4.04064 C 31.25974,871.46818 30.066291,862.21346 21.411275,845.33571 15.280646,831.19749 13.299863,825.05304 8.8194441,813.32798 L 3.2668259,801.11827 c -9.1728604,-19.52106 -17.1674169,-39.16849 -21.1767979,-56.83539 1.719757,-16.70537 3.516518,-20.7003 -7.069502,-28.4162 l -6.582861,-5.55013 c -12.072249,-18.19313 -15.499225,-31.80642 -28.135163,-47.84838 -5.481654,-8.89136 -24.756502,-22.64973 -31.005314,-29.39278 -8.974105,-7.45279 -7.259426,-24.43272 -6.01812,-32.61691 2.625001,-18.95962 1.225568,-17.08633 9.065476,-31.85167 l 16.198027,2.15392 c 8.974562,1.99189 17.729963,1.14074 26.772974,0.48756 6.065109,0.19349 12.107798,-0.16122 18.159547,-0.48756 4.702738,0.20444 9.661148,0.66136 14.451321,1.6649 -5.157532,8.24599 -9.765238,16.69698 -12.094851,24.65628 -2.404602,24.38673 20.0696421,35.28309 35.38791,40.23341 7.088993,1.63717 12.019631,0.49339 18.824903,-1.66185 3.813096,-1.70763 5.931645,-3.78586 8.939286,-6.55541 l 7.417874,-8.79232 6.249498,-6.9765 11.313875,-16.1417 10.896323,-16.07071 c 7.18773,-11.07251 14.858897,-23.47751 20.715781,-33.70372 8.235368,-18.579 13.056508,-45.90892 1.369693,-62.2648 -22.265196,-2.7713 -46.682432,9.10086 -61.584109,23.64194 -5.099151,5.41259 -9.783998,12.01954 -13.82202,17.15751 l -2.024571,2.6143 c -4.987052,0.58657 -10.2020968,4.52195 -13.7003587,7.16517 -3.6647154,2.69915 -9.0858824,0.21121 -12.1054199,2.53131 -4.7201694,3.62694 -5.7731524,8.17647 -11.1336504,10.1674 -13.080072,-1.55008 -21.533907,-0.46347 -33.313742,-5.06106 l -11.133603,-3.55312 -10.0733,-2.57509 c -2.665493,-1.25598 -3.275624,-3.43449 -3.167461,-5.92897 5.585287,-15.95381 2.276263,-30.83978 0.205756,-47.87556 -1.818311,-6.74986 -6.59215,-12.66118 -9.885525,-18.24725 -0.123399,-0.70984 -0.108804,-1.36151 0.0841,-1.93661 l 3.529466,-10.5221 c 1.461841,-4.35866 31.513184,11.73991 33.133517,9.32364 4.047539,0.76121 -12.663344,-16.60418 -6.411651,-27.49999 0.53784,-1.87568 1.331443,-3.59884 1.081351,-5.84445 -0.223645,-2.46491 -0.0049,-3.01321 1.679173,-4.21883 1.580436,-1.13145 2.227673,-1.93072 2.119145,-2.60374 -0.129164,-0.79448 -1.050147,-2.02208 -2.303899,-3.07163 -2.041911,-1.71052 -7.119923,-6.54051 -8.015649,-7.48067 -1.283996,-0.038 -1.653597,-3.30473 -1.407304,-6.46931 0.242818,-3.11658 0.148701,-3.35128 -3.371797,-8.38028 -2.062226,-2.94612 -4.10766,-5.37662 -5.52997,-6.57506 -6.469758,-5.37544 -15.694092,-8.46098 -24.844533,-8.49648 z M 44.585739,513.96925 c 2.401493,-0.0221 3.556691,2.72944 0.441618,8.39384 -9.974334,13.95236 -14.227171,19.86543 -21.583871,29.31282 -2.755308,-0.22628 -6.159454,-0.46484 -9.057972,-1.04 8.493139,-11.70477 12.406069,-16.74191 25.015653,-33.45918 1.725888,-2.11286 3.695187,-3.19377 5.184618,-3.20748 z m -210.458909,9.59228 c 2.66074,3.99328 1.76771,8.57354 1.76771,13.18625 -0.38726,5.09723 -0.75009,10.51888 -0.75092,14.47529 0,3.80589 0.26437,3.55211 0.26437,5.3282 0.5475,5.0113 0.69619,9.59399 -1.54552,14.20965 -4.68129,5.83227 -3.06168,29.93612 -8.04114,15.22995 l -2.56232,-4.84065 c -2.43915,-5.84073 -5.33551,-12.11922 -6.80358,-17.4941 -2.95918,-8.09012 -4.56286,-17.31036 -7.82041,-24.10987 -0.96958,-5.08276 -1.93467,-6.53154 2.25283,-9.14704 l 8.61494,-1.24378 c 5.76267,-0.32285 9.82106,-2.74136 14.62404,-5.5939 z m 248.086205,20.92654 c 2.379896,0.0224 3.22479,2.89396 0.970214,7.60291 -18.617591,28.68866 -18.311634,28.35873 -36.711116,52.88079 -4.736046,1.31443 -7.483896,0.91589 -4.60034,-6.27765 19.97667,-29.98211 20.478363,-30.08369 34.285558,-50.47028 2.374177,-2.5938 4.530108,-3.75012 6.055684,-3.73577 z M -7.7240712,605.331 c 0.051565,-4.7e-4 0.1029009,-9.3e-4 0.1546945,0 0.8452143,0.014 1.7217701,0.23469 2.5487285,0.69889 5.42267674,3.78212 11.5638753,7.22834 16.6771632,10.58849 8.339039,7.85142 5.505308,13.16923 -2.4616135,10.59457 -8.27626407,-4.83789 -13.4119258,-9.70944 -20.4379615,-14.74847 -2.442396,-3.9994 0.270773,-7.08994 3.5189888,-7.13348 z"
         style="fill:#00ff00;fill-opacity:1;stroke:none;stroke-width:0.0458683" />
    </g>
    <g
       id="text2985-14"
       style="font-style:normal;font-weight:normal;font-size:2000px;line-height:125%;font-family:Sans;letter-spacing:0px;word-spacing:0px;fill:#00ff00;fill-opacity:1;stroke:none"
       transform="matrix(0.04770877,0,0,0.04770875,2065.3462,69.668864)" />
    <g
       id="text2985-1-2"
       style="font-style:normal;font-weight:normal;font-size:2000px;line-height:125%;font-family:Sans;letter-spacing:0px;word-spacing:0px;fill:#00ff00;fill-opacity:1;stroke:none"
       transform="matrix(0.04770877,0,0,0.04770875,2065.3462,69.668864)" />
  </g>
</svg>
