<?xml version="1.0" encoding="UTF-8" standalone="no"?>
<!-- Created with Inkscape (http://www.inkscape.org/) -->

<svg
   width="1050"
   height="1050"
   id="svg3204"
   version="1.1"
   inkscape:version="1.1.2 (b8e25be833, 2022-02-05)"
   sodipodi:docname="RESCUE.svg"
   xmlns:inkscape="http://www.inkscape.org/namespaces/inkscape"
   xmlns:sodipodi="http://sodipodi.sourceforge.net/DTD/sodipodi-0.dtd"
   xmlns="http://www.w3.org/2000/svg"
   xmlns:svg="http://www.w3.org/2000/svg"
   xmlns:rdf="http://www.w3.org/1999/02/22-rdf-syntax-ns#"
   xmlns:cc="http://creativecommons.org/ns#"
   xmlns:dc="http://purl.org/dc/elements/1.1/">
  <defs
     id="defs3206" />
  <sodipodi:namedview
     id="base"
     pagecolor="#ffffff"
     bordercolor="#666666"
     borderopacity="1.0"
     inkscape:pageopacity="0.0"
     inkscape:pageshadow="2"
     inkscape:zoom="0.45254834"
     inkscape:cx="644.13008"
     inkscape:cy="470.66795"
     inkscape:document-units="px"
     inkscape:current-layer="layer1"
     showgrid="false"
     inkscape:window-width="1920"
     inkscape:window-height="1017"
     inkscape:window-x="-8"
     inkscape:window-y="-1088"
     inkscape:window-maximized="1"
     inkscape:pagecheckerboard="0"
     units="px" />
  <metadata
     id="metadata3209">
    <rdf:RDF>
      <cc:Work
         rdf:about="">
        <dc:format>image/svg+xml</dc:format>
        <dc:type
           rdf:resource="http://purl.org/dc/dcmitype/StillImage" />
      </cc:Work>
    </rdf:RDF>
  </metadata>
  <g
     inkscape:label="Calque 1"
     inkscape:groupmode="layer"
     id="layer1">
    <g
       transform="matrix(0.60626987,0,0,0.60627015,2234.8703,-45745.264)"
       id="g3185"
       style="fill:#00ff00">
      <path
         sodipodi:nodetypes="scccccccccccccccccccccccccccccccccccscccccccccccccccccccccccccccccscccccccccccccccccccscccccccccccccccccccccccccscccccccccccc"
         inkscape:connector-curvature="0"
         id="path3034-4"
         d="m -2815.4062,75815.719 c -3.2239,0 -6.421,0.269 -9.5938,0.687 -5.2914,0.655 -10.3224,1.63 -15,3.157 -9.5791,3.129 -17.7455,8.585 -24.0625,18.437 -8.4545,13.016 -10.2486,26.355 -7,41.031 v 5.75 l 5.125,11.344 3.1563,13.312 2,14.407 -1,10.343 c 0.2309,0.553 0.4555,1.103 0.6874,1.657 -12.7093,34.082 -40.0937,22.366 -61.5624,37.906 -3.7831,2.837 -9.4666,7.575 -13.25,13.25 -5.3079,7.895 -15.1497,9.31 -23.5938,12.313 0,0 -11.3955,5.694 -16.125,8.531 -17.9975,13.731 -34.134,21.11 -52,34.031 -3.7835,2.837 -10.3961,7.56 -15.125,11.344 -27.8563,28.312 -28.0296,30.039 -17.0625,65.281 11.4767,29.653 22.1042,48.578 38.8125,72.844 l 13.25,17.031 c 6.6627,14.211 15.9582,22.698 21.75,35.938 l 4.7188,17.937 c -1.5709,9.881 -0.062,16.08 2.8124,25.094 16.7759,14.097 10.6392,20.718 16.0626,37.312 -12.8285,78.378 -14.5372,98.48 5.7187,175.969 -6.8247,17.448 -22.8337,-1.58 -32.1875,-5.219 -49.2877,-42.779 -41.8706,-18.786 -111.5625,-31.187 -21.4203,-6.486 -44.0983,-14.205 -63.4063,-21.782 -9.2496,-4.956 -2.3123,-18.327 -0.5,-26.5 1.235,-9.414 -1.0789,-16.805 -9.7187,-18.531 -35.4443,-7.07 -26.2122,12.718 -69.0313,37.031 -27.4556,19.346 -43.3192,18.618 -69.2187,33.063 -6.8884,6.865 -15.4691,14.449 -11.3437,22.687 10.6662,5.078 19.5851,-0.34 30.2187,-3.718 15.1579,-8.605 32.5998,-9.287 50.1563,-9.532 76.9111,-0.13 103.9533,24.055 145.6562,43.532 42.3775,26.62 89.8117,54.664 131.5,70.031 46.5537,17.16 56.7529,8.045 77.5625,-32.187 14.3391,-38.718 33.0585,-80.599 38.1663,-118.387 -1.7979,-17.222 2.5729,-22.219 10.1643,-17.444 l 37.5605,27.38 c 15.0354,8.713 29.8692,20.556 45.5152,28.075 15.5937,7.552 14.2213,19.048 17.0624,35 1.9289,19.939 5.7741,49.798 12.547,68.437 11.2905,20.631 20.3641,31.408 43.1875,47.501 18.1414,23.496 31.4192,37.812 44.4843,64.75 7.9314,12.067 15.3158,24.468 22.75,36.844 3.0617,10.636 5.9688,16.541 5.9688,27.468 -4.423,28.284 2.7563,48.839 27.1562,35.907 17.5029,-9.276 31.4587,-18.375 49.1875,-18.375 27.5462,-2.628 52.4591,-3.7 74.6875,-24.156 18.7421,-17.782 16.4599,-25.252 1.9062,-24.594 -24.9749,11.582 -41.545,8.02 -67.1874,7.531 -52.5601,-5.1 -54.787,-22.349 -71,-53.813 -11.4841,-26.35 -15.2011,-37.8 -23.5938,-59.656 l -10.4062,-22.75 c -17.1829,-36.384 -32.1772,-73.005 -39.6876,-105.937 3.2218,-31.14 6.6114,-38.589 -13.2187,-52.969 l -12.3437,-10.344 c -22.6146,-33.908 -29.0172,-59.284 -52.6876,-89.187 -10.2682,-16.573 -46.3882,-42.211 -58.0937,-54.781 -16.8111,-13.893 -13.6067,-45.56 -11.2813,-60.813 4.9175,-35.342 2.314,-31.826 17,-59.344 l 30.3438,4 c 48.4331,7.229 95.2284,-1.926 142.375,-6.375 3.7257,-0.326 7.4798,0.18 11.2188,0.09 2.9374,-0.07 8.4257,-0.469 8.8124,-0.469 0.387,0 9.2919,2.902 9.9688,3 0.6773,0.1 6.6835,1.238 10.0625,1.25 3.3111,0.01 9.3602,-1.156 9.8437,-1.156 3.0237,-0.684 13.355,-5.123 15.5938,-7.563 0.9048,-1.009 1.4218,-2.308 1.9375,-3.562 0.5238,-1.274 1.1938,-2.592 1.1563,-3.969 -0.032,-1.162 -0.6519,-2.234 -1.1563,-3.281 -0.3961,-0.822 -1.625,-1.445 -1.4687,-2.344 0.2673,-1.538 2.907,-1.523 3.6874,-2.875 0.7821,-1.354 0.9456,-3.114 0.6876,-4.656 -0.1856,-1.109 -1.0118,-2.019 -1.5626,-3 -0.425,-0.757 -1.4216,-1.355 -1.3437,-2.219 0.1393,-1.547 2.3951,-2.113 3.0937,-3.5 0.9189,-1.824 1.3675,-3.929 1.25,-5.968 -0.076,-1.324 -0.3382,-2.82 -1.25,-3.782 -0.7866,-0.83 -3.5332,-0.16 -3.1874,-1.25 0.3711,-1.17 2.3476,1.052 3.5624,0.875 0.8865,-0.129 1.7324,-1.085 2.3126,-1.375 0.5805,-0.291 2.4378,-1.789 3.0937,-3.094 0.7909,-1.572 0.7813,-4.832 0.7813,-5.218 0,-0.388 -0.8616,-3.002 -1.8438,-4.156 -1.0718,-1.26 -3.7692,-2.235 -4.1562,-2.719 -0.3866,-0.483 -2.7917,-2.639 -4.5313,-3.375 -9.5849,-3.047 -38.5134,-3.327 -45.4687,-0.5 -5.6477,2.458 -8.6433,8.845 -13.5313,12.594 -2.2646,1.736 -5.7791,6.341 -8.3549,7.569 -27.2047,17.665 -79.5177,8.633 -102.7701,-0.04 l -20.875,-6.625 -18.875,-4.813 c -4.9931,-2.34 -6.1089,-6.379 -5.9063,-11.031 10.4628,-29.736 4.2553,-57.496 0.375,-89.25 -3.4061,-12.581 -12.3616,-23.586 -18.5312,-34 -0.2311,-1.321 -0.2054,-2.552 0.1562,-3.625 l 6.625,-19.594 c 2.7383,-8.124 59.0274,21.878 62.0626,17.375 7.5819,1.417 -23.7112,-30.942 -12,-51.25 1.0073,-3.496 2.4686,-6.721 2,-10.906 -0.4185,-4.594 0.011,-5.626 3.1562,-7.875 2.9606,-2.11 4.1723,-3.593 3.9688,-4.844 -0.2399,-1.483 -1.9639,-3.761 -4.3126,-5.719 -3.8248,-3.187 -13.3222,-12.185 -15,-13.937 -2.4052,-0.09 -3.1174,-6.164 -2.6562,-12.063 0.4551,-5.811 0.2826,-6.25 -6.3125,-15.624 -3.8633,-5.49 -7.6797,-10.018 -10.3437,-12.25 -12.1196,-10.021 -29.4215,-15.779 -46.5626,-15.844 z m -131.8438,264.968 c 4.984,7.441 3.3125,15.968 3.3125,24.563 -0.7258,9.502 -1.4046,19.625 -1.4063,27 0,7.097 0.5,6.625 0.5,9.937 1.0253,9.336 1.2928,17.865 -2.9062,26.469 -8.7692,10.871 -5.7347,55.82 -15.0625,28.407 l -4.8125,-9.032 c -4.569,-10.884 -9.9686,-22.609 -12.7188,-32.625 -5.5433,-15.082 -8.5541,-32.262 -14.6562,-44.937 -1.8163,-9.472 -3.6256,-12.159 4.2188,-17.032 l 16.125,-2.312 c 10.795,-0.602 18.409,-5.125 27.4062,-10.438 z"
         style="fill:#00ff00;stroke:#000000;stroke-width:0.191494px;stroke-linecap:butt;stroke-linejoin:miter;stroke-opacity:1" />
      <path
         inkscape:connector-curvature="0"
         id="path3911-4-2"
         d="m -2262.4683,75712.128 c -316.752,-290.899 -799.5378,-287.337 -1111.7688,-3.646 l 139.5582,128.171 c 241.1124,-207.418 604.7108,-206.148 844.7324,14.282 240.0216,220.431 272.1708,582.605 85.9834,840.465 l 139.558,128.166 c 256.1473,-335.195 218.6889,-816.541 -98.0632,-1107.438 z m -22.7179,35.162 -54.8488,92.796 -21.4927,-17.508 32.6493,-52.566 -58.7421,31.308 -8.535,-6.949 19.6953,-63.122 -45.7881,41.862 -21.3689,-17.413 81.3635,-71.19 21.1894,17.265 -19.1345,57.729 53.6423,-29.622 z m 34.9937,36.721 18.7176,20.444 -78.6205,71.968 -18.7155,-20.445 z m 44.6247,48.607 15.8046,22.773 -24.4893,79.061 53.5623,-37.176 15.8059,22.771 -87.5594,60.777 -15.8062,-22.773 24.5538,-79.111 -53.6271,37.221 -15.8045,-22.771 z m -269.9369,-212.062 c 0.1034,0.09 0.2034,0.18 0.3025,0.27 4.3929,4.05 7.2619,8.789 8.608,14.211 1.8973,7.577 1.1269,15.104 -2.3134,22.573 -3.9408,8.558 -9.6416,14.215 -17.1,16.971 -4.765,1.757 -10.3023,1.962 -16.6115,0.601 l 12.1385,53.732 -31.35,-14.437 -6.8587,-48.205 -17.1136,37.167 -25.1804,-11.593 44.5816,-96.814 39.1525,18.028 c 4.6765,2.155 8.5907,4.645 11.7445,7.487 z m 351.3405,337.627 16.8886,37.267 c 4.1252,9.103 5.4138,18.691 3.8645,28.768 -1.4716,9.868 -5.4084,18.709 -11.8104,26.525 -5.3234,6.413 -11.613,11.265 -18.8671,14.555 -10.0994,4.572 -20.8317,5.764 -32.1989,3.574 -11.3666,-2.197 -20.8578,-7.279 -28.4743,-15.259 -4.0322,-4.23 -7.2289,-8.955 -9.5924,-14.17 l -16.8925,-37.267 z m -374.4847,-326.011 c -1.6853,-1.536 -3.921,-2.951 -6.7093,-4.233 l -4.6819,-2.156 -11.1362,24.186 4.68,2.157 c 5.296,2.438 9.6136,3.075 12.9541,1.925 3.6164,-1.262 6.2193,-3.612 7.809,-7.062 1.5896,-3.454 1.6758,-6.942 0.2575,-10.461 -0.6285,-1.55 -1.6866,-3 -3.1741,-4.356 z m -66.2249,-51.829 -16.3251,59.243 c -1.7012,6.172 -3.6539,11.306 -5.8606,15.395 -3.4226,6.347 -8.8384,11.495 -16.2452,15.448 -10.5018,5.584 -22.7288,6.452 -36.6804,2.611 -14.2029,-3.917 -24.1872,-10.989 -29.9542,-21.218 -3.0541,-5.378 -4.4796,-11.463 -4.2789,-18.267 0.14,-4.821 1.2615,-11.043 3.3634,-18.671 l 16.323,-59.247 26.724,7.366 -15.3272,55.627 c -1.2308,4.47 -2.0765,7.827 -2.5347,10.077 -1.4201,7.112 0.4246,12.859 5.5381,17.238 2.0906,1.815 4.5915,3.13 7.5021,3.93 6.524,1.798 12.0702,0.872 16.6406,-2.783 3.3855,-2.685 6.4088,-8.847 9.0637,-18.479 l 15.3257,-55.636 z m 431.0283,412.657 -54.8337,24.85 2.6111,5.762 c 4.4906,9.908 11.1479,15.836 19.9736,17.783 6.7233,1.469 13.4279,0.687 20.1138,-2.345 6.6851,-3.032 11.6671,-7.544 14.9483,-13.545 4.3344,-7.967 4.267,-16.881 -0.2034,-26.745 l -2.6108,-5.76 z m 80.7999,166.115 5.7036,29.677 -97.0936,59.538 -5.5869,-29.066 16.9533,-10.257 -7.2223,-37.57 -19.636,-3.701 -5.5264,-28.758 z m -662.7018,-605.186 c 2.585,2.354 4.9617,4.983 7.1267,7.898 8.6757,11.702 12.402,24.792 11.1789,39.263 -1.2186,14.423 -7.0875,26.672 -17.6043,36.758 -11.9924,11.472 -27.3249,16.415 -45.9987,14.838 -18.6212,-1.572 -32.8811,-9.019 -42.778,-22.344 -8.6756,-11.702 -12.4059,-24.765 -11.1872,-39.183 0.5566,-6.588 2.4254,-13.234 5.6043,-19.939 3.1788,-6.71 7.1536,-12.34 11.9275,-16.903 11.9926,-11.471 27.3263,-16.42 46.0005,-14.842 14.5882,1.233 26.4981,6.053 35.7303,14.454 z m -20.1163,20.057 c -0.099,-0.08 -0.2034,-0.182 -0.3029,-0.272 -4.8341,-4.347 -10.6943,-6.814 -17.5802,-7.397 -6.3283,-0.533 -12.2094,0.765 -17.6453,3.882 -5.4354,3.118 -9.4917,7.541 -12.1701,13.27 -1.5299,3.267 -2.4417,6.638 -2.7354,10.113 -0.6045,7.162 1.2394,13.767 5.534,19.827 5.3212,7.499 12.6514,11.647 21.988,12.433 9.3374,0.79 17.2807,-2.038 23.8335,-8.485 5.2409,-5.147 8.1714,-11.377 8.7896,-18.693 0.6312,-7.467 -1.2086,-14.129 -5.5204,-19.974 -1.2974,-1.755 -2.694,-3.322 -4.1908,-4.704 z m 653.2729,605.999 -35.5509,-5.014 4.3615,22.694 z m 43.7207,67.021 3.576,73.156 -23.1658,1.129 -1.1187,-22.926 -83.296,4.068 -1.3509,-27.689 83.2938,-4.072 -1.1004,-22.537 z m -796.5862,-708.707 -34.7729,58.721 4.5932,51.017 -27.6072,2.484 -4.5956,-51.016 -43.3858,-51.681 32.9769,-2.968 22.6703,27.124 16.6802,-30.67 z m 796.4397,861.137 -6.378,42.63 c -1.8649,12.457 -6.9771,21.113 -15.3357,25.966 -6.7475,3.941 -14.1888,5.301 -22.3231,4.08 -9.3186,-1.391 -16.3418,-5.286 -21.0698,-11.676 -3.0209,-4.083 -4.7588,-9.348 -5.2163,-15.781 l -48.2036,26.657 5.1068,-34.135 44.3722,-20.047 -40.4646,-6.056 4.1017,-27.411 z m -24.9525,24.294 -26.3331,-3.94 -0.7635,5.097 c -0.863,5.766 -0.2711,10.089 1.7702,12.977 2.2172,3.117 5.2051,4.961 8.9635,5.521 3.7582,0.565 7.1272,-0.317 10.1101,-2.67 2.8046,-2.214 4.6336,-6.173 5.4889,-11.889 z m -942.2916,-861.781 6.6108,22.23 -22.0042,6.542 23.7753,79.934 -26.5693,7.907 -23.7755,-79.939 -21.6296,6.435 -6.6107,-22.226 z m 946.8954,951.42 -16.9251,58.264 -22.2707,-6.471 9.1915,-31.641 -17.321,-5.033 -8.6933,29.919 -22.2683,-6.469 8.6931,-29.921 -18.2241,-5.29 -9.1916,31.641 -22.2689,-6.47 16.9247,-58.263 z m -1044.3638,-921.026 25.7603,55.792 c 2.6842,5.811 4.5042,10.994 5.4576,15.539 1.481,7.059 0.6678,14.485 -2.4396,22.284 -4.4193,11.042 -13.1979,19.6 -26.3366,25.664 -13.375,6.177 -25.5638,7.221 -36.5699,3.128 -5.8033,-2.138 -10.8235,-5.866 -15.06,-11.194 -3.0038,-3.772 -6.1657,-9.253 -9.4826,-16.437 l -25.7607,-55.792 25.1658,-11.62 24.189,52.388 c 1.9424,4.207 3.4665,7.316 4.5686,9.331 3.5062,6.354 8.6241,9.552 15.3536,9.597 2.7707,0 5.526,-0.573 8.2672,-1.839 6.1435,-2.838 9.7826,-7.126 10.9157,-12.868 0.8535,-4.234 -0.8154,-10.889 -5.0053,-19.966 l -24.1893,-52.391 z m 996.9501,1003.01 c 0.099,0.09 0.1942,0.181 0.2936,0.273 3.3138,3.049 5.9033,6.632 7.767,10.752 4.2699,9.359 4.1158,19.286 -0.46,29.78 -4.596,10.546 -11.7467,19.727 -21.4529,27.535 l -15.3256,-18.773 c 6.7073,-3.664 11.2871,-8.314 13.741,-13.944 1.1857,-2.719 1.5553,-5.454 1.1071,-8.205 -0.5143,-3.122 -2.0843,-5.255 -4.7091,-6.398 -2.5773,-1.126 -5.4933,-0.493 -8.7479,1.892 -1.4829,1.059 -4.8331,4.71 -10.0523,10.954 -6.5348,7.825 -13.044,12.601 -19.5277,14.318 -5.5389,1.505 -11.5292,0.853 -17.972,-1.956 -16.5113,-7.193 -24.1106,-19.14 -22.7989,-35.831 0.4383,-5.829 1.9266,-11.652 4.4636,-17.473 5.3244,-12.216 13.9611,-21.939 25.9125,-29.168 l 15.7309,19.803 c -10.1991,4.641 -16.8898,10.609 -20.0721,17.91 -1.4351,3.294 -1.8887,6.421 -1.3594,9.376 0.5529,3.421 2.4062,5.819 5.556,7.188 2.8633,1.253 5.8942,0.809 9.0927,-1.315 2.3883,-1.572 5.4535,-4.636 9.1997,-9.195 4.6065,-5.485 7.6219,-8.885 9.0453,-10.197 2.2201,-2.096 4.4654,-3.733 6.7354,-4.898 6.5618,-3.329 14.1838,-3.103 22.8694,0.683 4.2545,1.852 7.9106,4.152 10.9651,6.893 z m -1097.4663,-926.243 c 2.4305,2.199 4.6701,4.821 6.7187,7.861 5.375,7.992 7.9415,15.868 7.6992,23.622 -0.3207,10.063 -6.1353,18.9 -17.4524,26.513 l -14.384,9.675 19.6985,29.286 -22.9995,15.472 -59.4904,-88.438 36.6063,-24.624 c 10.4099,-7.004 20.3646,-9.277 29.8603,-6.818 5.1128,1.305 9.6922,3.79 13.7433,7.451 z m 1077.1858,1020.636 -37.4721,62.931 -19.9241,-11.866 11.7441,-19.727 -71.655,-42.661 14.1816,-23.815 71.6533,42.66 11.546,-19.387 z m -1096.9019,-999.572 c -1.623,-1.442 -3.4497,-2.373 -5.4772,-2.793 -3.244,-0.673 -7.1754,0.547 -11.7973,3.656 l -7.7099,5.188 14.7739,21.962 7.6451,-5.142 c 4.9669,-3.339 7.6549,-6.718 8.0593,-10.126 0.375,-3.076 -0.5549,-6.28 -2.7919,-9.606 -0.8282,-1.232 -1.7283,-2.276 -2.702,-3.139 z m -274.5948,160.021 c -231.3023,333.346 -186.8151,794.639 120.4011,1076.776 307.2161,282.141 770.6172,287.282 1083.1125,28.501 l -140.5234,-129.052 c -240.4911,182.987 -584.7249,173.323 -815.109,-38.257 -230.3841,-211.578 -269.2556,-553.75 -107.3577,-808.917 z m 1096.0488,1054.975 c 3.4918,3.207 6.4797,6.822 8.9658,10.849 5.828,9.428 8.3805,19.925 7.6566,31.478 -0.7244,11.554 -4.5562,21.617 -11.4972,30.187 -3.682,4.541 -7.9599,8.314 -12.8312,11.328 l -34.8055,21.502 -56.027,-90.668 34.8078,-21.511 c 8.5026,-5.251 17.8481,-7.755 28.0384,-7.501 9.9759,0.18 19.2489,2.973 27.8183,8.326 2.8605,1.812 5.4847,3.814 7.874,6.01 z m -1002.2008,-918.265 -13.2572,24.345 -93.6052,-50.98 13.257,-24.341 z m 980.8708,937.138 c -2.7886,-2.584 -5.9746,-4.582 -9.5586,-5.979 -8.4533,-3.284 -17.2874,-2.077 -26.4984,3.616 l -5.3782,3.321 31.6431,51.214 5.3822,-3.325 c 9.2553,-5.715 14.2823,-13.077 15.0843,-22.081 0.598,-6.854 -1.0314,-13.4 -4.8896,-19.644 -1.6881,-2.735 -3.6156,-5.106 -5.7848,-7.122 z m -1023.0886,-907.38 -6.954,14.589 -20.2123,-23.473 4.9739,-10.432 z m 10.2584,32.774 -10.154,25.792 -77.5964,-30.554 -12.1864,30.955 -21.5809,-8.498 22.3439,-56.741 z m 932.6762,871.191 9.7551,21.041 -29.8963,13.858 7.5853,16.364 28.2663,-13.102 9.753,21.038 -28.266,13.106 7.9792,17.215 29.8965,-13.857 9.7531,21.037 -55.0452,25.514 -44.8238,-96.701 z m -955.4797,-811.9 -7.6716,26.638 -80.1376,-23.079 -9.2074,31.963 -22.2825,-6.416 16.8773,-58.602 z m 895.3976,839.696 7.6381,21.895 -31.1131,10.853 5.9398,17.035 29.4186,-10.263 7.6361,21.901 -29.4187,10.257 6.2502,17.915 31.113,-10.847 7.6359,21.894 -57.2862,19.98 -35.1006,-100.641 z m -62.8923,23.22 21.8168,104.327 -27.1343,5.675 -63.2722,-53.46 13.363,63.893 -27.1325,5.679 -21.8167,-104.333 27.1325,-5.669 63.2567,53.383 -13.3452,-63.821 z m -857.2187,-766.812 -4.7712,40.949 c -2.3129,19.859 -12.6734,28.714 -31.081,26.572 -5.5327,-0.645 -10.0324,-2.272 -13.502,-4.876 -2.9437,-2.177 -5.3073,-5.286 -7.0911,-9.316 -2.7458,8.273 -6.8087,13.672 -12.1855,16.19 -4.9271,2.254 -10.4414,3.026 -16.5425,2.318 -7.9111,-0.923 -14.0871,-3.923 -18.5268,-8.997 -6.4286,-7.355 -8.8635,-17.698 -7.3102,-31.04 l 5.1393,-44.13 z m -24.1502,25.095 -20.7069,-2.413 -0.5893,5.042 c -0.5544,4.758 0.2123,8.304 2.2979,10.646 1.6687,1.869 3.8737,2.963 6.6144,3.284 4.8084,0.559 8.241,-1.239 10.2983,-5.4 0.6976,-1.49 1.1995,-3.532 1.5005,-6.116 z m -41.6489,-4.853 -22.338,-2.602 -0.7139,6.13 c -0.8193,7.031 -0.5622,12.042 0.7667,15.025 1.4941,3.369 4.1537,5.282 7.9798,5.728 6.1534,0.715 10.1431,-2.048 11.9698,-8.278 0.545,-1.978 1.1044,-5.426 1.6764,-10.337 z m 56.9731,64.607 -0.3343,60.668 -23.1898,-0.138 0.1808,-32.951 -18.0363,-0.09 -0.1716,31.154 -23.1898,-0.138 0.1717,-31.157 -18.9737,-0.09 -0.1853,32.953 -23.1898,-0.138 0.3345,-60.671 106.5836,0.592 z m 720.8593,707.274 -0.05,61.449 c 0,6.408 -0.5332,11.87 -1.5779,16.396 -1.6193,7.026 -5.4769,13.429 -11.5718,19.204 -8.6485,8.163 -20.2062,12.24 -34.678,12.225 -14.7315,0 -26.2341,-4.183 -34.5044,-12.519 -4.3693,-4.374 -7.3573,-9.868 -8.9658,-16.479 -1.1413,-4.689 -1.7084,-10.987 -1.7021,-18.9 l 0.05,-61.453 h 27.7202 l -0.046,57.708 c 0,4.632 0.071,8.092 0.2259,10.383 0.5146,7.238 3.8171,12.285 9.9055,15.155 2.4978,1.196 5.2571,1.802 8.2762,1.802 6.7676,0 11.8702,-2.358 15.3098,-7.093 2.5533,-3.483 3.8339,-10.226 3.8414,-20.221 l 0.046,-57.703 h 27.7204 z m -713.8229,-575.656 5.0854,29.789 -98.3121,57.496 -4.9783,-29.17 17.1632,-9.9 -6.4386,-37.718 -19.557,-4.108 -4.9257,-28.863 z m 596.0726,578.714 c 3.4991,3.172 6.5773,6.831 9.2326,10.984 7.8385,12.282 10.643,25.596 8.4141,39.946 -2.2212,14.301 -8.9287,26.113 -20.1223,35.437 -12.7638,10.61 -28.4044,14.478 -46.9226,11.6 -18.4669,-2.869 -32.1723,-11.292 -41.1166,-25.272 -7.8384,-12.28 -10.6474,-25.568 -8.4268,-39.869 1.015,-6.533 3.3405,-13.035 6.9792,-19.506 3.6385,-6.465 7.9987,-11.806 13.0786,-16.026 12.7628,-10.604 28.4044,-14.467 46.9226,-11.593 13.0204,2.023 23.6737,6.791 31.9612,14.299 z m -626.0452,-558.467 -35.4385,-5.753 3.8894,22.782 z m 40.4746,43.055 8.7316,26.305 -45.8194,68.937 61.8805,-20.541 7.3613,22.186 12.8866,25.65 -16.9074,31.045 34.6501,4.255 8.544,17.008 0.091,-0.04 39.9914,61.363 -0.4021,0.272 16.0075,19.058 -31.5052,26.467 25.7164,30.612 31.5076,-26.472 17.8291,21.227 -81.6046,68.561 -17.8311,-21.222 33.9586,-28.53 -25.7167,-30.611 -33.9589,28.528 -17.8309,-21.221 64.3564,-54.071 -12.489,-19.158 -69.8633,45.535 -15.136,-23.224 69.8634,-45.535 -12.3205,-18.904 4.6209,-3.014 -46.1351,-7.392 -45.771,23.003 -12.4469,-24.775 45.7694,-22.997 26.0915,-48.144 -91.7537,30.449 -8.7316,-26.305 45.8947,-68.96 -61.9583,20.564 -8.7311,-26.309 101.1608,-33.572 z m 565.0458,534.931 c -4.264,-3.849 -9.4546,-6.249 -15.572,-7.202 -6.2755,-0.971 -12.2333,-0.09 -17.8725,2.638 -5.6404,2.734 -9.9955,6.864 -13.0666,12.394 -1.7536,3.151 -2.8985,6.448 -3.4339,9.896 -1.1024,7.097 0.2756,13.823 4.1392,20.161 4.7852,7.857 11.8065,12.502 21.0657,13.939 9.2594,1.442 17.3824,-0.828 24.3687,-6.8 5.5872,-4.77 8.9448,-10.785 10.0712,-18.038 1.1504,-7.405 -0.2213,-14.177 -4.1145,-20.314 -1.6406,-2.57 -3.5029,-4.794 -5.5853,-6.674 z m -57.0827,-37.112 -54.4862,41.088 -15.145,48.934 -26.4804,-8.196 15.1448,-48.933 -20.4768,-64.296 31.6255,9.79 10.6578,33.708 27.0849,-22.022 z m -157.2384,-60.687 c 4.8175,4.416 8.5517,9.471 11.2066,15.168 3.2943,7.012 4.7435,15.507 4.3463,25.484 l -28.2995,-3.054 c 0.4246,-5.458 -0.067,-9.995 -1.4788,-13.61 -2.0556,-5.151 -5.6647,-9.132 -10.83,-11.946 -10.5602,-5.752 -20.8968,-4.297 -31.0079,4.361 -3.7455,3.176 -6.7892,6.913 -9.1296,11.208 -4.8557,8.916 -6.0916,17.877 -3.706,26.885 1.7445,6.697 6.0917,11.942 13.0404,15.723 6.1715,3.362 12.0463,4.221 17.6249,2.576 3.6721,-1.079 7.1436,-3.754 10.4153,-8.02 l -19.9529,-10.867 10.0821,-18.514 48.2755,26.296 c -5.5283,10.147 -11.1796,17.797 -16.9513,22.954 -8.7782,7.847 -18.597,12.216 -29.4603,13.115 -10.4649,0.823 -20.9777,-1.644 -31.538,-7.397 -17.1879,-9.361 -27.1897,-22.396 -30.0037,-39.106 -2.1177,-12.651 0.1717,-25.131 6.8705,-37.429 7.4205,-13.622 17.728,-22.853 30.9207,-27.701 14.9863,-5.532 30.7537,-3.792 47.3022,5.227 4.6669,2.539 8.7578,5.423 12.2735,8.647 z m -62.945,-32.422 -65.1138,84.383 -21.9459,-16.934 -0.4884,-82.83 -39.8801,51.684 -21.9459,-16.937 65.1139,-84.385 21.9458,16.935 0.5385,82.77 39.8301,-51.621 z m -109.4973,-91.74 19.944,19.247 -74.0223,76.69 -19.9437,-19.248 z"
         style="opacity:0.91;fill:#00ff00;stroke:none" />
      <path
         sodipodi:nodetypes="cccccscccccccccsccccccscccccccccccccsscccccccccccccscccccccscccccccsccccscsccccscsccccccssccccscccccscccccccccc"
         inkscape:connector-curvature="0"
         id="path3056-2"
         d="m -2452.7329,76200.618 c 6.173,-31.538 7.7516,-60.33 8.0201,-94.422 l 0.1817,-22.27 3.1481,-4.715 3.1481,-4.714 v -7.447 c 0,-8.323 -1.1736,-12.029 -5.8466,-18.456 -3.2576,-4.482 -7.4082,-6.538 -14.5389,-7.199 -5.4074,-0.503 -5.5514,-0.573 -8.5801,-4.165 -5.0483,-5.988 -14.4206,-8.476 -21.22,-5.635 -2.1594,0.902 -4.2076,1.061 -8.6724,0.671 -5.3533,-0.467 -6.2214,-0.333 -10.3112,1.579 -3.8391,1.796 -5.5363,2.107 -12.0963,2.216 -9.2601,0.155 -11.0064,0.933 -17.9317,7.992 -2.728,2.781 -6.0524,5.627 -7.3877,6.326 -3.2452,1.697 -6.8637,6.839 -7.5115,10.673 -0.2891,1.711 -1.3795,4.756 -2.423,6.768 -1.3802,2.66 -2.0511,5.511 -2.4611,10.461 -0.3099,3.742 -0.8048,7.195 -1.0997,7.672 -0.295,0.477 -1.8119,1.067 -3.3709,1.311 -4.7269,0.738 -14.0409,3.473 -17.0457,5.006 -2.099,1.07 -3.3408,2.521 -4.8027,5.612 -3.1468,6.651 -5.7466,18.77 -6.6435,30.966 -1.5206,20.679 0.095,28.438 7.4087,35.578 5.2594,5.135 8.9933,6.409 20.8565,7.115 9.0349,0.537 9.5583,0.66 11.2551,2.633 0.9788,1.138 1.7796,2.526 1.7796,3.085 -0.052,13.159 -0.5112,18.189 1.2612,27.137 9.6573,6.079 77.4133,16.37 94.8839,-3.778 z m -44.1479,-4.871 c -3.1405,-3.784 -3.8572,-46.824 -0.8726,-52.401 1.0898,-2.036 3.384,-1.937 4.4103,0.191 0.7855,1.628 0.8306,1.592 0.8796,-0.701 0.041,-1.943 -0.4466,-2.725 -2.488,-3.988 -3.9792,-2.458 -5.2861,-6.617 -3.5307,-11.234 0.6359,-1.673 0.4816,-2.83 -0.7632,-5.723 -0.858,-1.995 -1.5601,-4.507 -1.5601,-5.584 0,-1.565 -0.3723,-1.957 -1.8579,-1.957 -3.046,0 -5.8745,-1.418 -9.5959,-4.808 -1.9332,-1.762 -4.586,-3.775 -5.8951,-4.472 -1.7251,-0.92 -2.7542,-2.322 -3.7395,-5.096 l -1.3595,-3.828 -3.5096,0.416 c -2.9474,0.349 -3.8451,0.126 -5.6033,-1.39 -2.2455,-1.938 -3.4916,-5.866 -3.5216,-11.102 -0.014,-2.456 -0.3524,-3.298 -1.4681,-3.652 -3.8462,-1.221 -10.7645,-6.582 -12.2493,-9.492 -3.427,-6.718 -0.4697,-14.208 7.4011,-18.746 2.2278,-1.284 5.0431,-3.776 6.3481,-5.617 3.576,-5.048 7.7224,-6.644 16.707,-6.434 6.2231,0.145 7.4349,-0.03 8.7856,-1.303 1.9257,-1.809 6.6319,-3.834 8.9111,-3.834 0.9302,0 3.1493,0.706 4.9315,1.569 l 3.2402,1.568 3.2959,-1.717 c 4.1654,-2.171 10.5524,-2.317 14.3602,-0.329 1.4689,0.768 4.4494,3.065 6.6233,5.105 3.8196,3.584 4.0698,3.693 7.429,3.233 7.7674,-1.064 14.1047,2.773 18.1524,10.993 2.2239,4.516 2.5144,5.829 2.5144,11.36 0,5.124 -0.2858,6.643 -1.5811,8.41 -2.2693,3.096 -8.2632,6.942 -12.9385,8.302 l -4.0258,1.17 -0.2656,6.809 -0.2654,6.81 -4.172,4.223 c -2.2946,2.323 -4.7841,4.418 -5.5321,4.656 -1.6591,0.526 -1.7178,1.758 -0.2204,4.629 2.3064,4.422 1.0473,11.138 -2.8673,15.296 l -2.286,2.427 2.0789,7.328 c 2.0228,7.131 2.0445,7.416 0.8051,10.544 -3.5723,9.021 -12.0423,11.549 -17.3901,5.194 l -1.7015,-2.022 -0.013,20.244 c -0.011,17.308 -0.1987,20.658 -1.2963,23.105 -1.3263,2.956 -2.8442,3.608 -4.3045,1.848 z m -18.9262,-3.574 c -2.3141,-4.9 -4.0827,-48.857 -2.6578,-66.057 0.9256,-11.173 2.1082,-15.813 4.1294,-16.202 3.9858,-0.767 5.3724,13.179 4.9929,50.219 -0.2542,24.819 -0.4647,29.002 -1.5866,31.535 -1.4858,3.354 -3.4364,3.556 -4.8779,0.505 z m -19.233,0.514 c -2.1744,-2.619 -2.7588,-13.365 -2.7662,-50.867 -0.011,-33.919 0.1247,-38.063 1.2889,-40.633 1.6818,-3.712 3.9886,-3.884 5.0825,-0.381 1.6187,5.184 2.5161,22.709 2.6114,50.999 0.1149,34.128 -0.7037,41.903 -4.412,41.903 -0.5267,0 -1.3388,-0.459 -1.8046,-1.021 z m 60.1806,-5.079 c -1.3195,-3.185 -1.4572,-29.602 -0.1661,-31.863 1.2189,-2.133 3.6543,-2.223 4.7506,-0.174 1.4096,2.633 2.115,12.903 1.5901,23.146 -0.4216,8.228 -0.7257,9.971 -1.8877,10.821 -1.8301,1.338 -3.1863,0.728 -4.2869,-1.93 z m 14.332,-9.352 c -2.311,-4.045 -1.4099,-62.19 1.1606,-74.894 0.9986,-4.936 2.6592,-6.755 4.8848,-5.351 2.4393,1.538 2.7068,5.672 2.243,34.653 -0.4241,26.488 -1.2008,37.305 -3.271,45.553 -0.5891,2.348 -3.6854,2.371 -5.0174,0.04 z m -106.2544,-26.8 c -5.6012,-5.601 -6.3861,-32.837 -1.1581,-40.179 1.9834,-2.785 4.1048,-3.23 6.4815,-1.362 2.5928,2.041 3.9185,5.461 5.0106,12.929 1.6233,11.103 -0.4174,24.743 -4.2796,28.606 -2.2907,2.29 -3.7682,2.292 -6.0544,0 z"
         style="fill:#00ff00" />
    </g>
    <g
       id="text2985-14"
       style="font-style:normal;font-weight:normal;font-size:2000px;line-height:125%;font-family:Sans;letter-spacing:0px;word-spacing:0px;fill:#00ff00;fill-opacity:1;stroke:none"
       transform="matrix(0.04770877,0,0,0.04770875,2065.3462,69.668864)" />
    <g
       id="text2985-1-2"
       style="font-style:normal;font-weight:normal;font-size:2000px;line-height:125%;font-family:Sans;letter-spacing:0px;word-spacing:0px;fill:#00ff00;fill-opacity:1;stroke:none"
       transform="matrix(0.04770877,0,0,0.04770875,2065.3462,69.668864)" />
  </g>
</svg>
